<?xml version="1.0" encoding="utf-8"?>
<!-- Generator: Adobe Illustrator 15.1.0, SVG Export Plug-In . SVG Version: 6.00 Build 0)  -->
<!DOCTYPE svg PUBLIC "-//W3C//DTD SVG 1.1//EN" "http://www.w3.org/Graphics/SVG/1.1/DTD/svg11.dtd">
<svg version="1.1" id="Layer_1" xmlns="http://www.w3.org/2000/svg" xmlns:xlink="http://www.w3.org/1999/xlink" x="0px" y="0px"
	 width="272.577px" height="123.346px" viewBox="0 0 272.577 123.346" enable-background="new 0 0 272.577 123.346"
	 xml:space="preserve">
<path fill="#EC202F" d="M31.362,7.904h27.803C56.34,3.165,51.176,0,45.267,0C39.353,0,34.18,3.165,31.362,7.904"/>
<path fill="#EC202F" d="M45.266,61.789c8.936,0,16.177-7.236,16.177-16.169c0-8.938-7.241-16.173-16.177-16.173
	c-8.939,0-16.182,7.233-16.182,16.173C29.085,54.552,36.329,61.789,45.266,61.789"/>
<path fill="#EC202F" d="M26.585,61.789c-8.944,0-16.186-7.236-16.186-16.169c0-8.938,7.24-16.185,16.186-16.185V61.789"/>
<path fill="#EC202F" d="M63.937,79.645l0.014-15.353h15.351C79.299,72.781,72.425,79.645,63.937,79.645"/>
<path fill="#EC202F" d="M26.585,11.579v15.368H11.206C11.206,18.459,18.091,11.579,26.585,11.579"/>
<path fill="#EC202F" d="M26.585,79.653V64.292H11.208C11.208,72.781,18.088,79.653,26.585,79.653"/>
<path fill="#EC202F" d="M82.638,59.52l-0.014-27.802c4.734,2.824,7.913,7.982,7.913,13.9C90.541,51.526,87.357,56.695,82.638,59.52"
	/>
<path fill="#EC202F" d="M58.957,82.98h-27.81c2.825,4.73,7.994,7.91,13.896,7.91C50.967,90.886,56.135,87.715,58.957,82.98"/>
<path fill="#EC202F" d="M61.431,64.292c0,8.942-7.229,16.179-16.164,16.179c-8.938,0-16.195-7.235-16.195-16.179H61.431"/>
<path fill="#EC202F" d="M63.949,61.789c8.934,0,16.174-7.236,16.174-16.169c0-8.938-7.24-16.185-16.174-16.185V61.789"/>
<path fill="#EC202F" d="M61.431,26.964c0-8.933-7.229-16.176-16.164-16.176c-8.938,0-16.195,7.243-16.195,16.176H61.431"/>
<path fill="#EC202F" d="M7.898,59.52V31.718C3.167,34.543,0,39.7,0,45.618C0,51.526,3.167,56.695,7.898,59.52"/>
<path fill="#EC202F" d="M79.299,26.959l-15.35-0.012L63.935,11.59C72.425,11.59,79.299,18.466,79.299,26.959"/>
<path fill="#231F20" d="M39.302,104.377h6.52c2.402,0,6.017,0.707,6.017,4.781c0,2.215-1.503,3.771-3.716,4.175v0.054
	c2.532,0.24,4.27,1.949,4.27,4.24c0,4.71-4.216,5.403-6.567,5.403h-6.518L39.302,104.377 M43.042,111.915h1.523
	c1.576,0,3.53-0.348,3.53-2.277c0-2.165-1.896-2.322-3.604-2.322H43.04L43.042,111.915 M43.042,120.09h1.761
	c1.733,0,3.852-0.438,3.852-2.584c0-2.44-1.98-2.813-3.852-2.813h-1.761V120.09z"/>
<path fill="#231F20" d="M36.288,122.763c-1.363,0.322-2.832,0.583-4.256,0.583c-6.028,0-10.222-3.016-10.222-9.32
	c0-6.38,3.895-9.964,10.222-9.964c1.235,0,2.862,0.241,4.225,0.779l-0.271,3.15c-1.403-0.809-2.692-0.99-4.024-0.99
	c-3.842,0-6.254,2.936-6.254,6.763c0,3.781,2.354,6.645,6.33,6.645c1.474,0,3.206-0.323,4.089-0.77L36.288,122.763"/>
<path fill="#231F20" d="M68.726,122.763c-1.356,0.322-2.828,0.583-4.242,0.583c-6.035,0-10.234-3.016-10.234-9.32
	c0-6.38,3.899-9.964,10.234-9.964c1.23,0,2.858,0.241,4.225,0.779l-0.272,3.15c-1.416-0.809-2.696-0.99-4.027-0.99
	c-3.852,0-6.257,2.936-6.257,6.763c0,3.781,2.354,6.645,6.333,6.645c1.465,0,3.212-0.323,4.099-0.77L68.726,122.763"/>
<polyline fill="#999999" points="102.642,0.233 102.642,123.346 103.392,123.346 103.392,0.233 "/>
<path fill="#004990" d="M123.565,56.524c0-3.965,0.435-7.299,1.306-10.002c0.87-2.703,2.688-4.925,5.451-6.668
	c-1.982-1.441-3.455-3.333-4.415-5.676c-0.961-2.343-1.441-4.776-1.441-7.299c0-6.308,1.336-10.933,4.01-13.876
	c2.672-2.942,6.321-4.415,10.947-4.415c4.564,0,8.2,1.473,10.903,4.415c2.703,2.943,4.055,7.568,4.055,13.876
	c0,2.522-0.481,4.956-1.442,7.299c-0.961,2.343-2.433,4.234-4.415,5.676c2.762,1.743,4.58,3.965,5.451,6.668
	c0.87,2.703,1.307,6.037,1.307,10.002c0,6.188-1.322,10.889-3.964,14.101c-2.644,3.215-6.609,4.821-11.894,4.821
	c-5.287,0-9.251-1.606-11.894-4.821C124.885,67.413,123.565,62.712,123.565,56.524z M139.423,66.616
	c2.163,0,3.664-0.946,4.505-2.839c0.84-1.892,1.261-4.55,1.261-7.974c0-3.425-0.421-6.082-1.261-7.975
	c-0.842-1.893-2.343-2.838-4.505-2.838c-2.162,0-3.665,0.945-4.505,2.838c-0.842,1.893-1.262,4.55-1.262,7.975
	c0,3.424,0.419,6.082,1.262,7.974C135.758,65.67,137.261,66.616,139.423,66.616z M139.423,35.26c1.742,0,2.988-0.69,3.739-2.072
	c0.75-1.382,1.126-3.664,1.126-6.849c0-3.183-0.376-5.465-1.126-6.848c-0.751-1.381-1.998-2.072-3.739-2.072
	c-1.743,0-2.989,0.691-3.739,2.072c-0.751,1.383-1.126,3.665-1.126,6.848c0,3.185,0.375,5.467,1.126,6.849
	C136.434,34.569,137.68,35.26,139.423,35.26z"/>
<path fill="#004990" d="M161.587,56.524c0-3.965,0.435-7.299,1.306-10.002c0.87-2.703,2.688-4.925,5.451-6.668
	c-1.982-1.441-3.455-3.333-4.415-5.676c-0.961-2.343-1.441-4.776-1.441-7.299c0-6.308,1.336-10.933,4.01-13.876
	c2.672-2.942,6.321-4.415,10.947-4.415c4.564,0,8.2,1.473,10.903,4.415c2.703,2.943,4.055,7.568,4.055,13.876
	c0,2.522-0.481,4.956-1.442,7.299c-0.961,2.343-2.433,4.234-4.415,5.676c2.762,1.743,4.58,3.965,5.451,6.668
	c0.87,2.703,1.307,6.037,1.307,10.002c0,6.188-1.322,10.889-3.964,14.101c-2.644,3.215-6.609,4.821-11.894,4.821
	c-5.287,0-9.251-1.606-11.894-4.821C162.908,67.413,161.587,62.712,161.587,56.524z M177.445,66.616
	c2.163,0,3.664-0.946,4.505-2.839c0.84-1.892,1.261-4.55,1.261-7.974c0-3.425-0.421-6.082-1.261-7.975
	c-0.842-1.893-2.343-2.838-4.505-2.838c-2.162,0-3.665,0.945-4.505,2.838c-0.842,1.893-1.262,4.55-1.262,7.975
	c0,3.424,0.419,6.082,1.262,7.974C173.781,65.67,175.283,66.616,177.445,66.616z M177.445,35.26c1.742,0,2.988-0.69,3.739-2.072
	c0.75-1.382,1.126-3.664,1.126-6.849c0-3.183-0.376-5.465-1.126-6.848c-0.751-1.381-1.998-2.072-3.739-2.072
	c-1.743,0-2.989,0.691-3.739,2.072c-0.751,1.383-1.126,3.665-1.126,6.848c0,3.185,0.375,5.467,1.126,6.849
	C174.457,34.569,175.703,35.26,177.445,35.26z"/>
<rect x="200.151" y="63.913" fill="#004990" width="10.632" height="10.632"/>
<path fill="#004990" d="M228.082,55.713v5.227c0,1.743,0.451,3.124,1.352,4.145c0.901,1.022,2.102,1.532,3.604,1.532
	c1.741,0,3.093-0.586,4.055-1.758c0.96-1.171,1.441-3.228,1.441-6.172V43.909c0-2.102-0.466-3.618-1.396-4.55
	c-0.932-0.931-2.027-1.396-3.289-1.396c-1.743,0-3.063,0.481-3.964,1.441c-0.901,0.962-1.592,2.133-2.072,3.514h-8.65
	c0.059-2.522,0.149-4.955,0.27-7.298c0.12-2.343,0.21-4.806,0.271-7.389c0.059-2.582,0.12-5.391,0.18-8.425
	c0.059-3.032,0.09-6.472,0.09-10.316h27.122l-0.36,9.19h-17.57l-0.631,14.056l0.18,0.181c1.381-1.681,2.717-2.732,4.01-3.153
	c1.291-0.42,2.807-0.631,4.55-0.631c4.325,0,7.388,1.486,9.19,4.46s2.703,7.194,2.703,12.659v9.011
	c0,6.848-1.171,11.925-3.514,15.228c-2.343,3.305-6.217,4.956-11.623,4.956c-2.284,0-4.401-0.257-6.353-0.767
	c-1.953-0.509-3.649-1.352-5.091-2.522c-1.442-1.172-2.568-2.703-3.379-4.596c-0.811-1.892-1.216-4.189-1.216-6.893v-4.956H228.082z
	"/>
<polygon fill="#231F20" points="260.242,25.943 268.129,25.943 268.129,22.975 260.242,22.975 260.242,12.408 271.566,12.408 
	271.566,9.438 257.064,9.438 257.064,40.861 260.242,40.861 "/>
<polygon fill="#231F20" points="268.998,44.392 264.399,69.497 259.807,44.392 256.054,44.392 256.054,74.878 258.534,74.878 
	258.534,50.483 263.19,74.878 265.444,74.878 270.097,50.483 270.097,74.878 272.577,74.878 272.577,44.392 "/>
<path fill="#004990" d="M123.604,93.054h2.208v2.066h0.044c0.32-0.695,0.786-1.264,1.402-1.71c0.611-0.441,1.255-0.663,1.921-0.663
	c0.457,0,0.973,0.056,1.547,0.165v2.21c-0.362-0.158-0.795-0.237-1.298-0.237c-1.045,0-1.89,0.487-2.528,1.461
	c-0.632,0.976-0.955,2.29-0.955,3.955v6.06h-2.343L123.604,93.054"/>
<path fill="#004990" d="M132.737,94.17c1.338-0.821,2.719-1.232,4.146-1.232c1.773,0,3.059,0.443,3.857,1.341
	c0.795,0.896,1.194,2.264,1.194,4.097v5.418c0,1.206,0.027,2.061,0.092,2.563h-2.162v-1.687h-0.047
	c-0.911,1.332-2.211,1.994-3.895,1.994c-1.426,0-2.535-0.323-3.322-0.976c-0.85-0.691-1.271-1.729-1.271-3.11
	c0-1.486,0.673-2.619,2.023-3.396c1.063-0.616,2.328-0.928,3.801-0.928c1.033,0,1.849,0.018,2.455,0.052
	c0-1.172-0.227-2.021-0.683-2.543c-0.483-0.587-1.287-0.88-2.41-0.88c-1.409,0-2.624,0.452-3.64,1.354L132.737,94.17
	 M139.61,100.111c-0.147,0-0.394-0.011-0.729-0.021c-0.333-0.018-0.584-0.026-0.751-0.026c-2.898,0-4.346,0.841-4.346,2.52
	c0,0.648,0.259,1.183,0.772,1.593c0.455,0.364,0.979,0.545,1.57,0.545c1.104,0,1.973-0.332,2.594-0.998
	c0.592-0.621,0.887-1.435,0.887-2.447L139.61,100.111z"/>
<path fill="#004990" d="M155.376,106.355h-2.275v-1.899h-0.044c-0.382,0.603-0.911,1.095-1.597,1.472
	c-0.832,0.49-1.773,0.735-2.821,0.735c-1.817,0-3.222-0.749-4.211-2.255c-0.88-1.314-1.319-2.985-1.319-5.011
	c0-1.933,0.462-3.518,1.389-4.751c1.003-1.376,2.393-2.066,4.165-2.066c2.005,0,3.426,0.721,4.279,2.164h0.042v-8.173h2.394
	L155.376,106.355 M146.452,96.164c-0.543,0.903-0.814,2.045-0.814,3.421c0,1.249,0.271,2.361,0.814,3.325
	c0.672,1.175,1.586,1.759,2.757,1.759c1.226,0,2.193-0.552,2.89-1.662c0.589-0.947,0.889-2.065,0.889-3.348
	c0-1.364-0.313-2.521-0.934-3.472c-0.701-1.063-1.654-1.59-2.867-1.59C147.989,94.599,147.075,95.121,146.452,96.164z"/>
<rect x="157.699" y="93.054" fill="#004990" width="2.366" height="13.301"/>
<path fill="#004990" d="M168.138,92.91c1.914,0,3.468,0.657,4.665,1.96c1.201,1.307,1.803,2.976,1.803,5.002
	c0,1.93-0.602,3.559-1.803,4.886c-1.24,1.381-2.799,2.071-4.665,2.071c-1.894,0-3.457-0.69-4.688-2.071
	c-1.196-1.327-1.799-2.957-1.799-4.886c0-2.026,0.597-3.695,1.785-5.002C164.63,93.568,166.2,92.91,168.138,92.91 M168.138,104.833
	c1.279,0,2.28-0.527,3.008-1.588c0.637-0.938,0.954-2.063,0.954-3.371c0-1.33-0.348-2.482-1.047-3.445
	c-0.759-1.014-1.729-1.522-2.915-1.522c-1.208,0-2.189,0.51-2.931,1.522c-0.715,0.948-1.072,2.098-1.072,3.445
	c0,1.31,0.316,2.435,0.953,3.371C165.835,104.306,166.854,104.833,168.138,104.833z"/>
<path fill="#EC202F" d="M130.087,109.427c1.913,0,3.471,0.658,4.667,1.96c1.198,1.308,1.798,2.979,1.798,5.004
	c0,1.929-0.6,3.558-1.798,4.887c-1.245,1.381-2.798,2.068-4.667,2.068c-1.895,0-3.458-0.688-4.688-2.068
	c-1.199-1.328-1.794-2.958-1.794-4.887c0-2.025,0.59-3.696,1.786-5.004C126.579,110.085,128.143,109.427,130.087,109.427
	 M130.087,121.354c1.272,0,2.279-0.529,3.005-1.591c0.643-0.936,0.958-2.061,0.958-3.371c0-1.328-0.352-2.48-1.047-3.443
	c-0.759-1.014-1.728-1.522-2.916-1.522c-1.212,0-2.19,0.51-2.938,1.522c-0.711,0.948-1.066,2.099-1.066,3.443
	c0,1.312,0.317,2.438,0.955,3.371C127.785,120.823,128.799,121.354,130.087,121.354z"/>
<path fill="#EC202F" d="M138.288,109.571h2.273v2.112h0.053c0.348-0.738,0.903-1.329,1.667-1.768
	c0.771-0.435,1.603-0.652,2.494-0.652c3.187,0,4.78,1.899,4.78,5.701v7.908h-2.346v-6.889c0-1.613-0.188-2.785-0.565-3.517
	c-0.426-0.789-1.141-1.201-2.141-1.231c-1.275-0.034-2.25,0.465-2.939,1.499c-0.623,0.961-0.933,2.292-0.933,3.984v6.151h-2.345
	L138.288,109.571"/>
<path fill="#EC202F" d="M162.266,122.324c-0.85,0.318-1.371,0.508-1.569,0.565c-0.742,0.208-1.564,0.313-2.479,0.313
	c-2.219,0-3.891-0.666-5.025-1.998c-1.082-1.249-1.616-2.998-1.616-5.245c0-1.995,0.553-3.622,1.662-4.88
	c1.106-1.258,2.555-1.888,4.344-1.888c3.778,0,5.666,2.518,5.666,7.551h-9.146c0,1.283,0.424,2.357,1.275,3.229
	c0.803,0.826,1.781,1.236,2.932,1.236c0.716,0,1.496-0.166,2.349-0.504c0.729-0.265,1.265-0.55,1.611-0.852L162.266,122.324
	 M160.721,114.916c0-1.075-0.271-1.956-0.814-2.634c-0.597-0.729-1.384-1.095-2.372-1.095c-1.06,0-1.903,0.399-2.526,1.211
	c-0.496,0.667-0.804,1.508-0.908,2.518H160.721z"/>
<path fill="#8191C1" d="M187.644,99.53h-4.081v-2.79c1.166-0.583,2.262-1.193,3.29-1.832c1.026-0.638,1.97-1.318,2.831-2.04h2.623
	v30.478h-4.663V99.53z"/>
<path fill="#8191C1" d="M194.222,100.695c0-2.858,0.569-4.947,1.708-6.266c1.138-1.318,3.011-1.978,5.621-1.978
	c2.609,0,4.482,0.66,5.621,1.978c1.138,1.319,1.707,3.408,1.707,6.266v14.406c0,2.859-0.569,4.948-1.707,6.266
	c-1.139,1.319-3.012,1.978-5.621,1.978c-2.609,0-4.483-0.659-5.621-1.978c-1.139-1.318-1.708-3.407-1.708-6.266V100.695z
	 M203.965,99.405c0-1.915-0.806-2.873-2.415-2.873c-1.61,0-2.415,0.958-2.415,2.873v16.987c0,1.916,0.805,2.873,2.415,2.873
	c1.609,0,2.415-0.958,2.415-2.873V99.405z"/>
<path fill="#8191C1" d="M219.994,116.101H211v-3.831l8.744-18.986h4.997v18.986h2.748v3.831h-2.748v7.245h-4.747V116.101z
	 M220.077,112.271v-11.741h-0.083l-5.038,11.741H220.077z"/>
<rect x="228.612" y="118.433" fill="#8191C1" width="4.913" height="4.913"/>
<polygon fill="#8191C1" points="234.315,97.531 234.315,93.285 247.889,93.285 247.889,96.199 241.769,123.346 236.897,123.346 
	242.934,97.531 "/>
<polygon fill="#231F20" points="255.207,100.733 258.852,100.733 258.852,99.361 255.207,99.361 255.207,94.479 260.44,94.479 
	260.44,93.106 253.738,93.106 253.738,107.626 255.207,107.626 "/>
<polygon fill="#231F20" points="259.253,109.258 257.128,120.859 255.006,109.258 253.271,109.258 253.271,123.346 254.417,123.346 
	254.417,112.073 256.569,123.346 257.611,123.346 259.759,112.073 259.759,123.346 260.907,123.346 260.907,109.258 "/>
</svg>
