<?xml version="1.0" encoding="UTF-8" standalone="no"?>
<svg
   xmlns:dc="http://purl.org/dc/elements/1.1/"
   xmlns:cc="http://creativecommons.org/ns#"
   xmlns:rdf="http://www.w3.org/1999/02/22-rdf-syntax-ns#"
   xmlns:svg="http://www.w3.org/2000/svg"
   xmlns="http://www.w3.org/2000/svg"
   id="svg11992"
   height="375"
   width="750"
   version="1.0">
<rect id="white" style="fill:white" height="150" width="750"/>
<rect id="green" style="fill:#007A33" y="150" height="75" width="750"/>
<rect id="blue" style="fill:#00B5E2" y="225" height="150" width="750"/>
  <path
     id="path1896"
     style="fill:#096330"
     d="m 89.144467,127.02643 c -1.662912,-1.19474 -3.023477,-2.99848 -3.023477,-4.00832 0,-4.0653 7.994609,-9.7063 19.02076,-13.42088 16.42392,-5.5331 26.66733,-10.95198 26.66733,-14.10742 0,-2.683234 2.04561,-11.065789 6.00544,-24.608814 2.64104,-9.032804 6.8184,-12.861332 11.37337,-10.423469 3.38898,1.813682 3.47794,4.794562 0.49074,16.450803 -2.41663,9.430021 -1.82725,12.176817 2.01552,9.391993 1.2579,-0.911612 3.79883,-2.408971 5.64651,-3.327571 1.84768,-0.918599 5.88665,-3.306608 8.97556,-5.306671 5.43689,-3.520536 5.81502,-4.248321 11.84544,-22.801179 6.83494,-21.027272 9.88006,-27.345398 15.00626,-31.134956 2.70971,-2.003289 4.25074,-2.257261 7.63569,-1.258975 3.79667,1.119761 4.20613,1.7344 3.91023,5.869172 -0.18195,2.540123 -1.50489,7.339389 -2.9399,10.665213 -6.14384,14.238559 -9.26716,23.591986 -8.22775,24.63999 0.61316,0.618133 4.3581,-0.352873 8.32209,-2.157955 7.86923,-3.583291 13.38647,-5.600689 22.66075,-8.285939 3.32582,-0.962944 8.87894,-2.852415 12.34009,-4.198735 5.09623,-1.982326 6.94203,-2.152178 9.70522,-0.893203 3.55117,1.618031 5.70443,6.835745 4.31497,10.456392 -1.02865,2.680682 -15.42134,9.160864 -25.01651,11.263323 -4.0649,0.890784 -8.60012,2.108371 -10.07826,2.705945 -11.35738,4.59125 -14.12837,6.055015 -13.72914,7.252581 0.25115,0.753719 6.76882,3.550771 14.48366,6.21573 19.49941,6.735634 20.07387,7.12116 20.07387,13.47141 0,3.679375 -0.72228,5.667075 -2.38169,6.555305 -4.60629,2.46514 -24.96142,-3.18433 -40.88533,-11.347455 -4.95044,-2.53784 -10.42441,-4.614229 -12.16432,-4.614229 -3.5884,0 -25.40204,10.700564 -26.10349,12.804904 -0.25222,0.75654 4.10307,3.63274 9.67835,6.3915 10.88868,5.38784 12.50242,7.36116 10.52895,12.87544 -2.06993,5.78424 -10.60594,4.85516 -25.68638,-2.79584 -12.15209,-6.1652 -12.23218,-6.18443 -18.02664,-4.29563 -3.20111,1.04343 -8.23903,3.03397 -11.19532,4.42355 -20.26496,9.52463 -26.426396,11.01433 -31.242593,7.55399 z" />
  <path
     id="path1894"
     style="fill:#007A33"
     d="m 90.812485,125.83599 c -2.280642,-1.66761 -2.34138,-2.15728 -0.592736,-4.7775 2.517414,-3.77235 16.621861,-9.90505 23.112531,-10.04949 3.07574,-0.0684 5.03913,-0.7665 5.03913,-1.7918 0,-0.92384 0.15117,-1.7172 0.33594,-1.76316 0.18477,-0.046 2.9059,-0.37854 6.04696,-0.73907 5.0461,-0.5793 5.711,-0.34037 5.711,2.05193 0,3.54594 -4.83622,6.26586 -7.38292,4.15225 -1.42897,-1.18601 -2.18026,-0.88071 -3.38859,1.3771 -1.03187,1.92803 -2.41581,2.67516 -4.12683,2.22769 -1.41593,-0.37021 -2.28535,-0.2056 -1.93235,0.36577 1.11977,1.81168 -4.47272,5.80254 -11.69628,8.34642 -8.355141,2.9423 -7.952145,2.92054 -11.125855,0.59986 z m 11.433715,-5.67634 c 0,-1.41713 -0.73074,-1.87913 -2.12558,-1.34377 -1.169071,0.44855 -2.378461,0.81554 -2.687528,0.81554 -0.309066,0 -0.561963,0.60468 -0.561963,1.34376 0,0.73907 1.20939,1.34377 2.687534,1.34377 1.572617,0 2.687537,-0.89576 2.687537,-2.1593 z m 6.71884,-5.31071 c 0,-0.32586 -0.60469,-0.59259 -1.34377,-0.59259 -0.73908,0 -1.34377,0.64043 -1.34377,1.42317 0,0.78261 0.60469,1.04935 1.34377,0.59248 0.73908,-0.45676 1.34377,-1.09706 1.34377,-1.42307 z m 48.71157,5.91016 c -4.29093,-2.08096 -5.71102,-3.54781 -5.71102,-5.89887 0,-2.64587 -0.77817,-3.1936 -5.03912,-3.54621 -3.76242,-0.31135 -5.37964,-1.20643 -6.3829,-3.53276 -1.05714,-2.45117 -2.09829,-2.96677 -4.88043,-2.41703 -1.94524,0.38445 -3.90526,0.33043 -4.35569,-0.12 -1.32777,-1.32778 1.96016,-4.42557 4.69741,-4.42557 3.26052,0 3.2026,-1.655925 -0.16448,-4.703191 -3.62387,-3.279464 -3.39757,-4.8639 1.34377,-9.406372 4.25746,-4.078872 5.04544,-7.18284 2.47575,-9.752525 -1.11115,-1.111028 -1.14515,-2.051665 -0.11892,-3.29223 0.79013,-0.95515 1.64128,-3.489765 1.89149,-5.632401 0.54907,-4.702111 4.28797,-7.590002 6.70177,-5.176192 1.26126,1.261125 1.14529,2.143039 -0.52608,4.001067 -1.17916,1.310845 -2.40951,5.104434 -2.7343,8.430259 -0.32479,3.325824 -1.0738,7.185392 -1.66466,8.576595 -0.6313,1.486879 -0.43282,3.556549 0.48174,5.020852 0.85571,1.37024 1.55581,3.370975 1.55581,4.445989 0,2.633515 1.64666,3.477535 5.04894,2.587828 1.76638,-0.461988 2.54926,-1.46511 2.0858,-2.672755 -0.84093,-2.191683 3.15127,-7.20837 5.73627,-7.20837 0.93728,0 3.50078,-1.511739 5.69663,-3.359419 5.01844,-4.222654 14.10499,-4.66556 17.49868,-0.852889 1.22712,1.378571 4.49866,3.846668 7.27019,5.484721 l 5.03912,2.978192 -0.0206,-3.133128 c -0.0165,-2.52279 -0.27668,-2.740479 -1.3353,-1.117477 -1.09302,1.675677 -1.89928,1.279132 -4.78005,-2.351593 -1.90587,-2.401984 -4.32841,-4.367244 -5.38353,-4.367244 -1.37763,0 -1.91823,-1.704166 -1.91823,-6.046953 0,-4.951246 0.44303,-6.046953 2.44525,-6.046953 1.34484,0 3.75959,1.511738 5.3662,3.359418 3.56394,4.099028 8.31375,4.509817 8.31375,0.719184 0,-3.251783 4.10414,-5.694483 6.78441,-4.03802 1.06494,0.658177 2.05436,2.732415 2.19868,4.60939 0.19606,2.551815 -0.38338,3.412632 -2.29744,3.412632 -1.40787,0 -3.26226,1.312726 -4.12093,2.917185 -1.27134,2.375377 -1.15524,3.213888 0.62458,4.515327 1.20213,0.879092 2.18577,2.220307 2.18577,2.98061 0,0.760169 1.05822,1.298213 2.3516,1.19555 1.61319,-0.127928 2.48261,0.947624 2.76883,3.425934 0.28408,2.459498 1.31246,3.746289 3.22209,4.031303 3.13823,0.468571 6.22137,4.443706 4.6587,6.006376 -0.5574,0.5574 -2.95481,0.0323 -5.32763,-1.167065 -2.37283,-1.19918 -6.04091,-2.56082 -8.15129,-3.025763 -2.2699,-0.500016 -4.1259,-1.949 -4.54382,-3.54768 -0.4499,-1.720023 -1.43702,-2.422007 -2.71616,-1.931262 -1.10511,0.424092 -2.6886,0.23489 -3.51866,-0.4206 -0.83017,-0.655489 -3.71631,-1.589005 -6.41352,-2.074374 -2.69735,-0.485502 -5.63805,-1.767054 -6.53514,-2.847981 -2.05181,-2.472128 -4.01411,-1.351426 -4.01411,2.292603 0,2.478175 -0.59825,2.705004 -5.42721,2.057308 -4.86457,-0.652534 -5.34376,-0.464945 -4.62202,1.809113 0.94278,2.970532 -5.39456,7.453741 -12.41104,8.779771 -4.60724,0.87091 -9.07486,4.56653 -5.5202,4.56653 1.05123,0 2.63473,-0.72334 3.51893,-1.60742 1.24742,-1.24742 1.98475,-1.13266 3.29223,0.51279 2.77985,3.49863 15.909,11.84478 18.63254,11.84478 1.9228,0 2.53677,0.97584 2.53677,4.03131 0,2.68753 -0.67189,4.0313 -2.01565,4.0313 -1.10861,0 -2.01565,-0.90704 -2.01565,-2.01565 0,-1.10861 -0.66933,-2.01565 -1.48756,-2.01565 -0.81807,0 -1.1395,0.90704 -0.71407,2.01565 1.08348,2.82352 -2.61148,2.48019 -9.55633,-0.88797 z m 35.94577,-42.896427 c 0,-3.27476 -3.14011,-2.811967 -3.79386,0.559277 -0.25719,1.326029 0.42826,2.240194 1.67971,2.240194 1.24648,0 2.11415,-1.148921 2.11415,-2.799471 z m 34.93795,24.971647 c 0,-1.11977 1.19448,-2.01566 2.68753,-2.01566 1.49306,0 2.68754,0.89589 2.68754,2.01566 0,1.11989 -1.19448,2.01565 -2.68754,2.01565 -1.49305,0 -2.68753,-0.89576 -2.68753,-2.01565 z m -10.93396,-5.596403 c -1.10606,-1.332882 -0.0751,-1.674468 4.7611,-1.577313 4.04017,0.08103 6.17286,0.715422 6.17286,1.836123 0,2.248528 -9.03038,2.034738 -10.93396,-0.25881 z m -7.87878,-9.856936 c 0,-0.739072 0.87129,-1.343767 1.93637,-1.343767 1.06493,0 2.31007,0.604695 2.76681,1.343767 0.45674,0.739072 -0.41455,1.343767 -1.93636,1.343767 -1.52169,0 -2.76682,-0.604695 -2.76682,-1.343767 z M 174.13775,75.287075 c -1.09584,-1.773101 0.51091,-4.289306 2.10851,-3.301905 1.63214,1.008631 1.62152,4.645672 -0.0136,4.645672 -0.69539,0 -1.63819,-0.604695 -2.09493,-1.343767 z m 32.47443,-7.614593 c -1.9396,-1.939593 -0.73841,-4.480388 2.12759,-4.499873 1.6629,-0.01129 3.89799,-0.573789 4.96669,-1.249973 2.85725,-1.807635 9.38568,2.08378 9.45825,5.637777 0.0469,2.30053 -5.09638,0.796451 -5.7438,-1.67971 -0.38661,-1.478144 -1.29365,-2.687534 -2.01565,-2.687534 -0.72215,0 -1.62919,1.20939 -2.01565,2.687534 -0.67485,2.580437 -4.87775,3.691463 -6.77743,1.791779 z m -24.32139,-4.379338 c -3.03678,-3.355655 -2.24207,-7.648052 1.30211,-7.031665 1.45128,0.252494 2.84033,1.008364 3.08663,1.67971 0.24645,0.67148 1.30467,1.220678 2.3516,1.220678 2.80162,0 2.31652,3.715785 -0.69553,5.327902 -3.37917,1.808443 -3.31346,1.821478 -6.04481,-1.196625 z m 45.22382,0.930694 c -1.68374,-0.811367 -2.74236,-2.130946 -2.3524,-2.932638 0.38983,-0.801557 1.06279,-2.441894 1.49548,-3.645237 1.24419,-3.460336 6.28574,-5.223896 8.41574,-2.943657 2.18228,2.336005 5.83733,-0.02714 4.68532,-3.029389 -1.40424,-3.659214 6.15016,-2.307921 7.84089,1.40249 1.30842,2.871899 1.07796,3.681922 -1.70861,6.00234 -1.77162,1.475187 -4.1638,2.70245 -5.31594,2.727041 -1.15201,0.02459 -3.26844,0.932441 -4.70319,2.017532 -3.06889,2.321358 -4.25463,2.3782 -8.35729,0.401518 z m 6.42079,-2.374437 c 0,-0.739072 -0.60469,-1.343767 -1.34377,-1.343767 -0.73906,0 -1.34377,0.604695 -1.34377,1.343767 0,0.739072 0.60471,1.343768 1.34377,1.343768 0.73908,0 1.34377,-0.604696 1.34377,-1.343768 z m -46.25812,-6.942977 c -0.31431,-0.98525 -0.83166,-4.978255 -1.14973,-8.873164 -0.56693,-6.940694 -0.52205,-7.044835 2.25041,-5.225911 2.75862,1.809919 2.81721,1.694222 2.36423,-4.66059 -0.43242,-6.065765 -0.20735,-6.61429 3.25514,-7.930645 5.18614,-1.971845 7.55345,-0.721066 7.04175,3.720489 -0.33312,2.890981 -1.27712,3.844518 -4.33137,4.374902 -3.51973,0.611281 -3.68569,0.860415 -1.67971,2.52252 2.92336,2.422276 2.81116,4.600119 -0.38607,7.49352 -1.43648,1.29996 -2.79705,3.917081 -3.02347,5.81569 -0.44815,3.757845 -3.42043,5.649736 -4.34118,2.763189 z" />
</svg>
