<?xml version="1.0" encoding="utf-8"?>
<!-- Generator: Adobe Illustrator 15.1.0, SVG Export Plug-In . SVG Version: 6.00 Build 0)  -->
<!DOCTYPE svg PUBLIC "-//W3C//DTD SVG 1.1//EN" "http://www.w3.org/Graphics/SVG/1.1/DTD/svg11.dtd">
<svg version="1.1" id="Layer_1" xmlns="http://www.w3.org/2000/svg" xmlns:xlink="http://www.w3.org/1999/xlink" x="0px" y="0px"
	 width="276.537px" height="122.302px" viewBox="0 0 276.537 122.302" enable-background="new 0 0 276.537 122.302"
	 xml:space="preserve">
<path fill="#004990" d="M132.605,60.099v3.333c0,4.145,1.591,6.217,4.775,6.217c3.483,0,5.226-2.072,5.226-6.217V48.205
	c-0.721,0.721-1.396,1.352-2.027,1.892c-0.63,0.541-1.292,0.991-1.982,1.352c-0.691,0.361-1.442,0.631-2.253,0.811
	s-1.788,0.271-2.928,0.271c-1.622,0-3.154-0.239-4.595-0.721c-1.442-0.48-2.703-1.262-3.785-2.343
	c-1.081-1.082-1.937-2.462-2.568-4.145c-0.631-1.681-0.946-3.724-0.946-6.127v-7.749c0-6.907,1.23-11.939,3.694-15.092
	c2.462-3.154,6.517-4.73,12.164-4.73c5.646,0,9.7,1.428,12.164,4.28c2.462,2.854,3.694,7.375,3.694,13.561V60.64
	c0,6.188-1.232,10.708-3.694,13.561c-2.464,2.854-6.519,4.28-12.164,4.28c-2.223,0.059-4.221-0.27-5.992-0.991
	c-1.772-0.721-3.289-1.726-4.55-3.018c-1.261-1.291-2.239-2.823-2.928-4.596c-0.691-1.771-1.036-3.708-1.036-5.812v-3.964H132.605z
	 M142.607,26.67c0-4.145-1.743-6.217-5.226-6.217c-3.484,0-5.226,2.072-5.226,6.217v10.813c0,2.103,0.435,3.665,1.307,4.686
	c0.87,1.022,1.997,1.532,3.379,1.532c1.021,0,2.072-0.361,3.154-1.082c1.081-0.721,1.951-1.352,2.613-1.892V26.67z"/>
<path fill="#004990" d="M159.545,59.558c0-3.964,0.435-7.298,1.306-10.001c0.87-2.703,2.688-4.925,5.451-6.667
	c-1.982-1.442-3.455-3.334-4.415-5.677c-0.961-2.343-1.441-4.775-1.441-7.298c0-6.307,1.336-10.932,4.01-13.876
	c2.672-2.942,6.321-4.415,10.947-4.415c4.564,0,8.2,1.473,10.903,4.415c2.703,2.944,4.055,7.569,4.055,13.876
	c0,2.523-0.481,4.956-1.442,7.298c-0.961,2.343-2.433,4.235-4.415,5.677c2.762,1.743,4.58,3.964,5.451,6.667
	c0.87,2.703,1.307,6.037,1.307,10.001c0,6.188-1.322,10.889-3.964,14.102c-2.644,3.214-6.609,4.82-11.894,4.82
	c-5.287,0-9.251-1.606-11.894-4.82C160.866,70.447,159.545,65.746,159.545,59.558z M175.403,69.65c2.163,0,3.664-0.946,4.505-2.838
	c0.84-1.892,1.261-4.55,1.261-7.974s-0.421-6.082-1.261-7.974c-0.842-1.892-2.343-2.838-4.505-2.838
	c-2.162,0-3.665,0.946-4.505,2.838c-0.842,1.892-1.262,4.55-1.262,7.974s0.419,6.082,1.262,7.974
	C171.739,68.704,173.241,69.65,175.403,69.65z M175.403,38.294c1.742,0,2.988-0.69,3.739-2.073c0.75-1.381,1.126-3.663,1.126-6.848
	c0-3.183-0.376-5.465-1.126-6.848c-0.751-1.381-1.998-2.072-3.739-2.072c-1.743,0-2.989,0.691-3.739,2.072
	c-0.751,1.383-1.126,3.665-1.126,6.848c0,3.185,0.375,5.467,1.126,6.848C172.415,37.604,173.661,38.294,175.403,38.294z"/>
<rect x="198.109" y="66.947" fill="#004990" width="10.632" height="10.632"/>
<path fill="#004990" d="M226.67,60.099v3.333c0,4.145,1.591,6.217,4.775,6.217c3.483,0,5.226-2.072,5.226-6.217V48.205
	c-0.721,0.721-1.396,1.352-2.027,1.892c-0.63,0.541-1.292,0.991-1.982,1.352c-0.691,0.361-1.442,0.631-2.253,0.811
	s-1.788,0.271-2.928,0.271c-1.622,0-3.154-0.239-4.595-0.721c-1.442-0.48-2.703-1.262-3.785-2.343
	c-1.081-1.082-1.937-2.462-2.568-4.145c-0.631-1.681-0.946-3.724-0.946-6.127v-7.749c0-6.907,1.23-11.939,3.694-15.092
	c2.462-3.154,6.517-4.73,12.164-4.73c5.646,0,9.7,1.428,12.164,4.28c2.462,2.854,3.695,7.375,3.695,13.561V60.64
	c0,6.188-1.232,10.708-3.695,13.561c-2.464,2.854-6.519,4.28-12.164,4.28c-2.223,0.059-4.221-0.27-5.992-0.991
	c-1.772-0.721-3.289-1.726-4.55-3.018c-1.261-1.291-2.239-2.823-2.928-4.596c-0.691-1.771-1.036-3.708-1.036-5.812v-3.964H226.67z
	 M236.672,26.67c0-4.145-1.743-6.217-5.226-6.217c-3.484,0-5.226,2.072-5.226,6.217v10.813c0,2.103,0.435,3.665,1.307,4.686
	c0.87,1.022,1.997,1.532,3.379,1.532c1.021,0,2.072-0.361,3.154-1.082c1.081-0.721,1.951-1.352,2.613-1.892V26.67z"/>
<polygon fill="#231F20" points="264.201,28.976 272.089,28.976 272.089,26.008 264.201,26.008 264.201,15.441 275.526,15.441 
	275.526,12.472 261.024,12.472 261.024,43.894 264.201,43.894 "/>
<polygon fill="#231F20" points="272.958,47.424 268.359,72.53 263.768,47.424 260.014,47.424 260.014,77.911 262.494,77.911 
	262.494,53.517 267.15,77.911 269.404,77.911 274.057,53.517 274.057,77.911 276.537,77.911 276.537,47.424 "/>
<path fill="#004990" d="M124.375,101.178h3.386v3.168h0.067c0.492-1.065,1.206-1.938,2.151-2.621
	c0.937-0.679,1.925-1.019,2.946-1.019c0.701,0,1.49,0.086,2.375,0.253v3.39c-0.559-0.244-1.221-0.363-1.992-0.363
	c-1.604,0-2.898,0.746-3.875,2.24c-0.971,1.492-1.465,3.513-1.465,6.065v9.289h-3.594V101.178"/>
<path fill="#004990" d="M138.382,102.891c2.052-1.262,4.169-1.894,6.358-1.894c2.722,0,4.691,0.684,5.916,2.057
	c1.221,1.373,1.838,3.472,1.838,6.282v8.31c0,1.847,0.039,3.16,0.137,3.932h-3.315v-2.585h-0.071
	c-1.398,2.043-3.389,3.057-5.973,3.057c-2.186,0-3.889-0.495-5.096-1.495c-1.301-1.063-1.951-2.651-1.951-4.77
	c0-2.279,1.032-4.017,3.104-5.208c1.629-0.944,3.572-1.423,5.83-1.423c1.584,0,2.835,0.026,3.767,0.08
	c0-1.798-0.348-3.102-1.049-3.9c-0.74-0.9-1.973-1.348-3.693-1.348c-2.164,0-4.027,0.693-5.584,2.074L138.382,102.891 M148.926,112
	c-0.23,0-0.606-0.016-1.115-0.033c-0.512-0.027-0.898-0.042-1.154-0.042c-4.444,0-6.664,1.292-6.664,3.865
	c0,0.995,0.395,1.812,1.187,2.443c0.696,0.558,1.498,0.836,2.407,0.836c1.697,0,3.025-0.511,3.98-1.532
	c0.906-0.952,1.359-2.2,1.359-3.754V112z"/>
<path fill="#004990" d="M173.102,121.577h-3.49v-2.913h-0.068c-0.584,0.925-1.398,1.677-2.447,2.257
	c-1.277,0.751-2.723,1.128-4.329,1.128c-2.787,0-4.94-1.149-6.457-3.459c-1.348-2.018-2.023-4.578-2.023-7.684
	c0-2.966,0.708-5.396,2.128-7.289c1.539-2.109,3.67-3.17,6.389-3.17c3.076,0,5.257,1.106,6.563,3.32h0.067V91.232h3.666
	L173.102,121.577 M159.418,105.949c-0.836,1.385-1.251,3.135-1.251,5.247c0,1.915,0.414,3.619,1.251,5.098
	c1.029,1.803,2.43,2.698,4.225,2.698c1.882,0,3.365-0.847,4.434-2.549c0.904-1.454,1.361-3.171,1.361-5.137
	c0-2.089-0.479-3.863-1.43-5.322c-1.074-1.628-2.539-2.437-4.4-2.437C161.773,103.548,160.373,104.349,159.418,105.949z"/>
<rect x="176.666" y="101.178" fill="#004990" width="3.63" height="20.399"/>
<path fill="#004990" d="M192.675,100.957c2.936,0,5.321,1.007,7.155,3.004c1.843,2.006,2.764,4.565,2.764,7.672
	c0,2.96-0.921,5.459-2.764,7.494c-1.902,2.117-4.291,3.175-7.155,3.175c-2.905,0-5.302-1.058-7.188-3.175
	c-1.836-2.035-2.756-4.534-2.756-7.494c0-3.106,0.913-5.666,2.734-7.672C187.297,101.964,189.699,100.957,192.675,100.957
	 M192.675,119.244c1.962,0,3.497-0.81,4.613-2.436c0.974-1.436,1.464-3.161,1.464-5.172c0-2.039-0.535-3.806-1.606-5.282
	c-1.165-1.559-2.651-2.336-4.471-2.336c-1.853,0-3.358,0.777-4.493,2.336c-1.097,1.452-1.646,3.217-1.646,5.282
	c0,2.011,0.485,3.736,1.462,5.172C189.143,118.435,190.705,119.244,192.675,119.244z"/>
<path fill="#EC202F" d="M218.715,100.957c2.934,0,5.322,1.007,7.157,3.004c1.837,2.006,2.759,4.565,2.759,7.672
	c0,2.96-0.922,5.459-2.759,7.494c-1.907,2.117-4.29,3.175-7.157,3.175c-2.905,0-5.303-1.058-7.191-3.175
	c-1.838-2.035-2.752-4.534-2.752-7.494c0-3.106,0.906-5.666,2.739-7.672C213.334,101.964,215.736,100.957,218.715,100.957
	 M218.715,119.244c1.955,0,3.495-0.81,4.609-2.436c0.982-1.436,1.47-3.161,1.47-5.172c0-2.039-0.539-3.806-1.608-5.282
	c-1.162-1.559-2.648-2.336-4.471-2.336c-1.858,0-3.361,0.777-4.502,2.336c-1.094,1.452-1.637,3.217-1.637,5.282
	c0,2.011,0.486,3.736,1.464,5.172C215.184,118.435,216.74,119.244,218.715,119.244z"/>
<path fill="#EC202F" d="M231.293,101.178h3.487v3.239h0.079c0.535-1.133,1.389-2.042,2.557-2.712
	c1.184-0.665,2.457-0.999,3.826-0.999c4.887,0,7.332,2.911,7.332,8.743v12.128h-3.599v-10.563c0-2.476-0.284-4.273-0.868-5.392
	c-0.654-1.213-1.749-1.844-3.282-1.894c-1.956-0.052-3.454,0.714-4.507,2.298c-0.955,1.476-1.43,3.518-1.43,6.116v9.435h-3.596
	V101.178"/>
<path fill="#EC202F" d="M268.067,120.734c-1.304,0.49-2.104,0.78-2.408,0.87c-1.138,0.32-2.403,0.479-3.804,0.479
	c-3.401,0-5.965-1.023-7.705-3.065c-1.661-1.914-2.481-4.597-2.481-8.044c0-3.058,0.849-5.554,2.548-7.48
	c1.7-1.931,3.917-2.896,6.665-2.896c5.794,0,8.688,3.859,8.688,11.581h-14.028c0,1.968,0.65,3.617,1.955,4.953
	c1.232,1.266,2.733,1.896,4.499,1.896c1.097,0,2.293-0.253,3.6-0.771c1.116-0.406,1.939-0.845,2.474-1.307L268.067,120.734
	 M265.697,109.374c0-1.646-0.416-3-1.25-4.041c-0.913-1.118-2.12-1.677-3.639-1.677c-1.623,0-2.918,0.615-3.873,1.856
	c-0.76,1.024-1.232,2.311-1.394,3.861H265.697z"/>
<path fill="#EC202F" d="M44.41,61.911c8.762,0,15.869-7.098,15.869-15.862c0-8.768-7.107-15.866-15.869-15.866
	c-8.773,0-15.876,7.098-15.876,15.866C28.534,54.813,35.639,61.911,44.41,61.911"/>
<path fill="#EC202F" d="M26.082,61.911c-8.775,0-15.878-7.098-15.878-15.862c0-8.768,7.103-15.877,15.878-15.877V61.911"/>
<path fill="#EC202F" d="M62.726,79.427l0.011-15.06h15.061C77.795,72.697,71.051,79.427,62.726,79.427"/>
<path fill="#EC202F" d="M26.082,12.655v15.076H10.994C10.994,19.405,17.749,12.655,26.082,12.655"/>
<path fill="#EC202F" d="M26.082,79.438v-15.07H10.997C10.997,72.697,17.745,79.438,26.082,79.438"/>
<path fill="#EC202F" d="M81.07,59.686l-0.014-27.274c4.646,2.77,7.762,7.831,7.762,13.637C88.821,51.845,85.703,56.915,81.07,59.686
	"/>
<path fill="#EC202F" d="M30.77,9.392h27.274c-2.771-4.649-7.837-7.755-13.634-7.755C38.606,1.637,33.533,4.743,30.77,9.392"/>
<path fill="#EC202F" d="M57.839,82.701H30.56c2.769,4.641,7.84,7.761,13.631,7.761C50,90.456,55.07,87.345,57.839,82.701"/>
<path fill="#EC202F" d="M60.267,64.368c0,8.773-7.096,15.872-15.855,15.872c-8.773,0-15.889-7.099-15.889-15.872H60.267"/>
<path fill="#EC202F" d="M62.735,61.911c8.765,0,15.869-7.098,15.869-15.862c0-8.768-7.104-15.877-15.869-15.877V61.911"/>
<path fill="#EC202F" d="M60.267,27.747c0-8.762-7.096-15.868-15.855-15.868c-8.773,0-15.889,7.106-15.889,15.868H60.267"/>
<path fill="#EC202F" d="M7.751,59.686V32.412C3.108,35.181,0,40.243,0,46.049C0,51.845,3.108,56.915,7.751,59.686"/>
<path fill="#EC202F" d="M77.795,27.742l-15.06-0.011l-0.011-15.067C71.051,12.664,77.795,19.41,77.795,27.742"/>
<path fill="#231F20" d="M38.558,103.691h6.395c2.357,0,5.901,0.694,5.901,4.692c0,2.172-1.476,3.7-3.647,4.094v0.053
	c2.486,0.236,4.19,1.912,4.19,4.161c0,4.619-4.138,5.3-6.444,5.3H38.56L38.558,103.691 M42.225,111.086h1.496
	c1.547,0,3.464-0.339,3.464-2.234c0-2.123-1.861-2.279-3.535-2.279h-1.425V111.086 M42.225,119.105h1.728
	c1.7,0,3.778-0.43,3.778-2.535c0-2.395-1.943-2.76-3.778-2.76h-1.728V119.105z"/>
<path fill="#231F20" d="M35.599,121.729c-1.336,0.315-2.778,0.573-4.175,0.573c-5.914,0-10.025-2.96-10.025-9.146
	c0-6.259,3.819-9.776,10.025-9.776c1.213,0,2.808,0.239,4.145,0.767l-0.266,3.091c-1.38-0.792-2.644-0.971-3.95-0.971
	c-3.769,0-6.135,2.877-6.135,6.635c0,3.71,2.312,6.517,6.21,6.517c1.445,0,3.145-0.317,4.01-0.754L35.599,121.729"/>
<path fill="#231F20" d="M67.422,121.729c-1.333,0.315-2.774,0.573-4.16,0.573c-5.924,0-10.042-2.96-10.042-9.146
	c0-6.259,3.827-9.776,10.042-9.776c1.206,0,2.803,0.239,4.142,0.767l-0.266,3.091c-1.389-0.792-2.647-0.971-3.954-0.971
	c-3.776,0-6.135,2.877-6.135,6.635c0,3.71,2.309,6.517,6.214,6.517c1.434,0,3.149-0.317,4.018-0.754L67.422,121.729"/>
<polyline fill="#999999" points="100.688,1.523 100.688,122.302 101.438,122.302 101.438,1.523 "/>
</svg>
