<?xml version="1.0" encoding="utf-8"?>
<!-- Generator: Adobe Illustrator 15.1.0, SVG Export Plug-In . SVG Version: 6.00 Build 0)  -->
<!DOCTYPE svg PUBLIC "-//W3C//DTD SVG 1.1//EN" "http://www.w3.org/Graphics/SVG/1.1/DTD/svg11.dtd">
<svg version="1.1" id="Layer_1" xmlns="http://www.w3.org/2000/svg" xmlns:xlink="http://www.w3.org/1999/xlink" x="0px" y="0px"
	 width="276.537px" height="120.778px" viewBox="0 0 276.537 120.778" enable-background="new 0 0 276.537 120.778"
	 xml:space="preserve">
<path fill="#004990" d="M132.606,58.576v3.333c0,4.145,1.591,6.217,4.775,6.217c3.483,0,5.227-2.072,5.227-6.217V46.682
	c-0.722,0.721-1.397,1.352-2.027,1.892c-0.631,0.541-1.293,0.991-1.982,1.352c-0.691,0.361-1.442,0.631-2.253,0.811
	s-1.788,0.271-2.929,0.271c-1.621,0-3.153-0.239-4.595-0.721c-1.441-0.48-2.703-1.262-3.784-2.343
	c-1.082-1.082-1.938-2.462-2.568-4.145c-0.631-1.681-0.946-3.724-0.946-6.127v-7.749c0-6.907,1.23-11.939,3.694-15.092
	c2.463-3.154,6.518-4.73,12.164-4.73c5.646,0,9.7,1.428,12.164,4.28c2.463,2.854,3.694,7.375,3.694,13.561v31.176
	c0,6.188-1.231,10.708-3.694,13.561c-2.464,2.854-6.519,4.28-12.164,4.28c-2.223,0.059-4.221-0.27-5.992-0.991
	c-1.772-0.721-3.288-1.726-4.55-3.018c-1.262-1.291-2.238-2.823-2.929-4.596c-0.691-1.771-1.036-3.708-1.036-5.812v-3.964H132.606z
	 M142.608,25.147c0-4.145-1.743-6.217-5.227-6.217c-3.484,0-5.226,2.072-5.226,6.217v10.813c0,2.103,0.435,3.665,1.307,4.686
	c0.87,1.022,1.996,1.532,3.379,1.532c1.021,0,2.072-0.361,3.153-1.082s1.951-1.352,2.613-1.892V25.147z"/>
<path fill="#004990" d="M159.546,27.94c0-6.186,1.23-10.707,3.694-13.561c2.463-2.852,6.518-4.28,12.164-4.28
	c5.646,0,9.7,1.428,12.164,4.28c2.463,2.854,3.694,7.375,3.694,13.561v31.176c0,6.188-1.231,10.708-3.694,13.561
	c-2.464,2.854-6.519,4.28-12.164,4.28c-5.646,0-9.701-1.426-12.164-4.28c-2.464-2.853-3.694-7.373-3.694-13.561V27.94z
	 M180.631,25.147c0-4.145-1.743-6.217-5.227-6.217c-3.484,0-5.226,2.072-5.226,6.217v36.762c0,4.145,1.741,6.217,5.226,6.217
	c3.483,0,5.227-2.072,5.227-6.217V25.147z"/>
<rect x="198.109" y="65.423" fill="#004990" width="10.632" height="10.632"/>
<path fill="#004990" d="M226.04,57.224v5.226c0,1.743,0.451,3.124,1.352,4.145c0.901,1.022,2.103,1.532,3.604,1.532
	c1.741,0,3.093-0.585,4.055-1.757c0.96-1.171,1.441-3.229,1.441-6.172V45.42c0-2.102-0.466-3.618-1.396-4.55
	c-0.932-0.931-2.027-1.396-3.289-1.396c-1.743,0-3.063,0.481-3.964,1.441c-0.901,0.961-1.593,2.133-2.073,3.514h-8.649
	c0.059-2.523,0.149-4.956,0.271-7.298c0.119-2.343,0.209-4.805,0.27-7.389c0.06-2.582,0.12-5.391,0.181-8.425
	c0.059-3.033,0.09-6.472,0.09-10.317h27.121l-0.36,9.191h-17.57l-0.63,14.056l0.18,0.18c1.381-1.681,2.717-2.733,4.01-3.154
	c1.291-0.419,2.808-0.631,4.55-0.631c4.325,0,7.389,1.487,9.191,4.46c1.802,2.973,2.703,7.194,2.703,12.66v9.01
	c0,6.848-1.172,11.925-3.515,15.228c-2.343,3.304-6.217,4.956-11.623,4.956c-2.284,0-4.401-0.256-6.353-0.766
	c-1.953-0.51-3.649-1.352-5.091-2.523s-2.568-2.703-3.379-4.595c-0.811-1.893-1.217-4.19-1.217-6.893v-4.956H226.04z"/>
<polygon fill="#231F20" points="264.201,27.453 272.088,27.453 272.088,24.484 264.201,24.484 264.201,13.918 275.525,13.918 
	275.525,10.949 261.023,10.949 261.023,42.37 264.201,42.37 "/>
<polygon fill="#231F20" points="272.957,45.901 268.359,71.007 263.767,45.901 260.013,45.901 260.013,76.388 262.494,76.388 
	262.494,51.993 267.15,76.388 269.404,76.388 274.056,51.993 274.056,76.388 276.537,76.388 276.537,45.901 "/>
<path fill="#004990" d="M124.374,99.654h3.387v3.168h0.067c0.492-1.065,1.206-1.938,2.151-2.621
	c0.937-0.679,1.925-1.019,2.946-1.019c0.701,0,1.49,0.086,2.374,0.253v3.39c-0.558-0.244-1.221-0.363-1.992-0.363
	c-1.603,0-2.897,0.746-3.875,2.24c-0.97,1.492-1.464,3.513-1.464,6.065v9.289h-3.595V99.654"/>
<path fill="#004990" d="M138.382,101.367c2.052-1.262,4.169-1.894,6.357-1.894c2.723,0,4.692,0.684,5.917,2.057
	c1.22,1.373,1.838,3.472,1.838,6.282v8.31c0,1.847,0.039,3.16,0.137,3.932h-3.315v-2.585h-0.071
	c-1.398,2.043-3.389,3.057-5.973,3.057c-2.187,0-3.888-0.495-5.096-1.495c-1.301-1.063-1.951-2.651-1.951-4.77
	c0-2.279,1.032-4.017,3.104-5.208c1.629-0.944,3.572-1.423,5.83-1.423c1.584,0,2.834,0.026,3.767,0.08
	c0-1.798-0.348-3.102-1.049-3.9c-0.741-0.9-1.973-1.348-3.693-1.348c-2.164,0-4.027,0.693-5.585,2.074L138.382,101.367
	 M148.926,110.477c-0.23,0-0.606-0.016-1.116-0.033c-0.511-0.027-0.898-0.042-1.153-0.042c-4.444,0-6.664,1.292-6.664,3.865
	c0,0.995,0.395,1.812,1.187,2.443c0.696,0.558,1.498,0.836,2.407,0.836c1.697,0,3.026-0.511,3.98-1.532
	c0.906-0.952,1.359-2.2,1.359-3.754V110.477z"/>
<path fill="#004990" d="M173.102,120.054h-3.49v-2.913h-0.068c-0.585,0.925-1.399,1.677-2.448,2.257
	c-1.276,0.751-2.722,1.128-4.328,1.128c-2.787,0-4.94-1.149-6.457-3.459c-1.348-2.018-2.023-4.578-2.023-7.684
	c0-2.966,0.708-5.396,2.128-7.289c1.539-2.109,3.67-3.17,6.389-3.17c3.076,0,5.257,1.106,6.563,3.32h0.067V89.709h3.666
	L173.102,120.054 M159.418,104.426c-0.836,1.385-1.251,3.135-1.251,5.247c0,1.915,0.413,3.619,1.251,5.098
	c1.029,1.803,2.43,2.698,4.225,2.698c1.882,0,3.364-0.847,4.434-2.549c0.904-1.454,1.361-3.171,1.361-5.137
	c0-2.089-0.479-3.863-1.43-5.322c-1.073-1.628-2.539-2.437-4.4-2.437C161.772,102.024,160.372,102.825,159.418,104.426z"/>
<rect x="176.666" y="99.654" fill="#004990" width="3.63" height="20.399"/>
<path fill="#004990" d="M192.675,99.434c2.936,0,5.32,1.007,7.155,3.004c1.842,2.006,2.764,4.565,2.764,7.672
	c0,2.96-0.922,5.459-2.764,7.494c-1.902,2.117-4.291,3.175-7.155,3.175c-2.905,0-5.302-1.058-7.189-3.175
	c-1.834-2.035-2.755-4.534-2.755-7.494c0-3.106,0.913-5.666,2.734-7.672C187.296,100.44,189.7,99.434,192.675,99.434
	 M192.675,117.721c1.962,0,3.497-0.81,4.613-2.436c0.974-1.436,1.464-3.161,1.464-5.172c0-2.039-0.535-3.806-1.606-5.282
	c-1.164-1.559-2.651-2.336-4.471-2.336c-1.854,0-3.359,0.777-4.493,2.336c-1.098,1.452-1.646,3.217-1.646,5.282
	c0,2.011,0.484,3.736,1.462,5.172C189.142,116.911,190.705,117.721,192.675,117.721z"/>
<path fill="#EC202F" d="M218.715,99.434c2.934,0,5.322,1.007,7.157,3.004c1.837,2.006,2.758,4.565,2.758,7.672
	c0,2.96-0.921,5.459-2.758,7.494c-1.908,2.117-4.291,3.175-7.157,3.175c-2.905,0-5.304-1.058-7.191-3.175
	c-1.838-2.035-2.752-4.534-2.752-7.494c0-3.106,0.906-5.666,2.739-7.672C213.334,100.44,215.736,99.434,218.715,99.434
	 M218.715,117.721c1.955,0,3.495-0.81,4.609-2.436c0.982-1.436,1.469-3.161,1.469-5.172c0-2.039-0.538-3.806-1.607-5.282
	c-1.162-1.559-2.649-2.336-4.471-2.336c-1.859,0-3.36,0.777-4.502,2.336c-1.094,1.452-1.637,3.217-1.637,5.282
	c0,2.011,0.486,3.736,1.464,5.172C215.184,116.911,216.739,117.721,218.715,117.721z"/>
<path fill="#EC202F" d="M231.292,99.654h3.488v3.239h0.078c0.536-1.133,1.39-2.042,2.558-2.712c1.184-0.665,2.456-0.999,3.827-0.999
	c4.886,0,7.331,2.911,7.331,8.743v12.128h-3.599V109.49c0-2.476-0.284-4.273-0.869-5.392c-0.652-1.213-1.748-1.844-3.281-1.894
	c-1.956-0.052-3.454,0.714-4.506,2.298c-0.957,1.476-1.431,3.518-1.431,6.116v9.435h-3.597V99.654"/>
<path fill="#EC202F" d="M268.067,119.211c-1.303,0.49-2.104,0.78-2.407,0.87c-1.139,0.32-2.404,0.479-3.805,0.479
	c-3.401,0-5.965-1.023-7.706-3.065c-1.66-1.914-2.48-4.597-2.48-8.044c0-3.058,0.848-5.554,2.548-7.48
	c1.7-1.931,3.916-2.896,6.665-2.896c5.795,0,8.688,3.859,8.688,11.581h-14.028c0,1.968,0.649,3.617,1.955,4.953
	c1.231,1.266,2.733,1.896,4.499,1.896c1.097,0,2.293-0.253,3.601-0.771c1.115-0.406,1.938-0.845,2.473-1.307L268.067,119.211
	 M265.697,107.851c0-1.646-0.416-3-1.251-4.041c-0.911-1.118-2.119-1.677-3.638-1.677c-1.623,0-2.919,0.615-3.873,1.856
	c-0.761,1.024-1.232,2.311-1.394,3.861H265.697z"/>
<path fill="#EC202F" d="M44.41,60.387c8.761,0,15.868-7.098,15.868-15.862c0-8.768-7.107-15.866-15.868-15.866
	c-8.773,0-15.876,7.098-15.876,15.866C28.534,53.289,35.639,60.387,44.41,60.387"/>
<path fill="#EC202F" d="M26.081,60.387c-8.774,0-15.878-7.098-15.878-15.862c0-8.768,7.104-15.877,15.878-15.877V60.387"/>
<path fill="#EC202F" d="M62.726,77.904l0.011-15.06h15.061C77.795,71.173,71.051,77.904,62.726,77.904"/>
<path fill="#EC202F" d="M26.081,11.131v15.076H10.993C10.993,17.881,17.748,11.131,26.081,11.131"/>
<path fill="#EC202F" d="M26.081,77.915v-15.07H10.997C10.997,71.173,17.744,77.915,26.081,77.915"/>
<path fill="#EC202F" d="M81.07,58.162l-0.015-27.274c4.646,2.77,7.762,7.831,7.762,13.637C88.821,50.321,85.702,55.391,81.07,58.162
	"/>
<path fill="#EC202F" d="M30.77,7.869h27.273c-2.771-4.649-7.837-7.755-13.633-7.755C38.605,0.113,33.532,3.219,30.77,7.869"/>
<path fill="#EC202F" d="M57.839,81.177H30.56c2.769,4.641,7.841,7.761,13.632,7.761C50,88.933,55.07,85.821,57.839,81.177"/>
<path fill="#EC202F" d="M60.268,62.844c0,8.773-7.097,15.872-15.856,15.872c-8.772,0-15.889-7.099-15.889-15.872H60.268"/>
<path fill="#EC202F" d="M62.735,60.387c8.765,0,15.867-7.098,15.867-15.862c0-8.768-7.103-15.877-15.867-15.877V60.387"/>
<path fill="#EC202F" d="M60.268,26.224c0-8.762-7.097-15.868-15.856-15.868c-8.772,0-15.889,7.106-15.889,15.868H60.268"/>
<path fill="#EC202F" d="M7.751,58.162V30.888C3.107,33.658,0,38.719,0,44.525C0,50.321,3.107,55.391,7.751,58.162"/>
<path fill="#EC202F" d="M77.795,26.219l-15.06-0.011l-0.012-15.067C71.051,11.141,77.795,17.887,77.795,26.219"/>
<path fill="#231F20" d="M38.558,102.168h6.396c2.356,0,5.9,0.694,5.9,4.692c0,2.172-1.475,3.7-3.646,4.094v0.053
	c2.486,0.236,4.189,1.912,4.189,4.161c0,4.619-4.137,5.3-6.443,5.3H38.56L38.558,102.168 M42.226,109.563h1.495
	c1.547,0,3.464-0.339,3.464-2.234c0-2.123-1.861-2.279-3.535-2.279h-1.424V109.563 M42.226,117.582h1.728
	c1.699,0,3.777-0.43,3.777-2.535c0-2.395-1.942-2.76-3.777-2.76h-1.728V117.582z"/>
<path fill="#231F20" d="M35.6,120.205c-1.337,0.315-2.779,0.573-4.175,0.573c-5.915,0-10.026-2.96-10.026-9.146
	c0-6.259,3.82-9.776,10.026-9.776c1.213,0,2.808,0.239,4.145,0.767l-0.266,3.091c-1.38-0.792-2.644-0.971-3.95-0.971
	c-3.769,0-6.135,2.877-6.135,6.635c0,3.71,2.312,6.517,6.21,6.517c1.445,0,3.145-0.317,4.01-0.754L35.6,120.205"/>
<path fill="#231F20" d="M67.423,120.205c-1.333,0.315-2.775,0.573-4.16,0.573c-5.924,0-10.042-2.96-10.042-9.146
	c0-6.259,3.826-9.776,10.042-9.776c1.206,0,2.803,0.239,4.142,0.767l-0.267,3.091c-1.39-0.792-2.647-0.971-3.954-0.971
	c-3.775,0-6.135,2.877-6.135,6.635c0,3.71,2.309,6.517,6.214,6.517c1.435,0,3.149-0.317,4.018-0.754L67.423,120.205"/>
<rect x="100.687" fill="#999999" width="0.75" height="120.778"/>
</svg>
