<?xml version="1.0" encoding="utf-8"?>
<!-- Generator: Adobe Illustrator 15.1.0, SVG Export Plug-In . SVG Version: 6.00 Build 0)  -->
<!DOCTYPE svg PUBLIC "-//W3C//DTD SVG 1.1//EN" "http://www.w3.org/Graphics/SVG/1.1/DTD/svg11.dtd">
<svg version="1.1" id="Layer_1" xmlns="http://www.w3.org/2000/svg" xmlns:xlink="http://www.w3.org/1999/xlink" x="0px" y="0px"
	 width="283.912px" height="123.346px" viewBox="0 0 283.912 123.346" enable-background="new 0 0 283.912 123.346"
	 xml:space="preserve">
<path fill="#EC202F" d="M197.662,112.852v2.76c0,0.92,0.238,1.65,0.714,2.189c0.476,0.54,1.11,0.809,1.904,0.809
	c0.919,0,1.633-0.309,2.141-0.928s0.762-1.705,0.762-3.26v-7.805c0-1.112-0.247-1.911-0.738-2.404
	c-0.492-0.492-1.071-0.737-1.737-0.737c-0.92,0-1.619,0.254-2.094,0.762c-0.476,0.506-0.84,1.125-1.094,1.856h-4.569
	c0.031-1.334,0.078-2.618,0.143-3.855c0.063-1.238,0.111-2.539,0.143-3.904c0.03-1.363,0.063-2.847,0.095-4.449
	c0.031-1.603,0.047-3.419,0.047-5.45h14.326l-0.19,4.855h-9.281l-0.333,7.424l0.095,0.095c0.73-0.888,1.436-1.443,2.118-1.666
	c0.683-0.221,1.483-0.333,2.404-0.333c2.284,0,3.902,0.786,4.854,2.356c0.953,1.57,1.429,3.8,1.429,6.688v4.758
	c0,3.618-0.618,6.299-1.856,8.043c-1.238,1.745-3.285,2.618-6.14,2.618c-1.206,0-2.324-0.136-3.355-0.405
	c-1.031-0.27-1.927-0.713-2.689-1.333c-0.762-0.619-1.356-1.428-1.784-2.428c-0.429-1-0.643-2.213-0.643-3.641v-2.618H197.662z"/>
<path fill="#EC202F" d="M222.125,114.518h-10.281v-4.379l9.994-21.704h5.712v21.704h3.141v4.379h-3.141v8.281h-5.425V114.518z
	 M222.219,110.139V96.718h-0.094l-5.759,13.421H222.219z"/>
<path fill="#EC202F" d="M234.403,97.384c0-3.268,0.649-5.655,1.951-7.162s3.442-2.262,6.425-2.262c2.982,0,5.125,0.754,6.425,2.262
	c1.301,1.507,1.951,3.895,1.951,7.162v16.468c0,3.268-0.65,5.656-1.951,7.163c-1.3,1.508-3.443,2.261-6.425,2.261
	c-2.983,0-5.124-0.753-6.425-2.261c-1.301-1.507-1.951-3.895-1.951-7.163V97.384z M245.539,95.909c0-2.189-0.919-3.284-2.76-3.284
	c-1.84,0-2.761,1.094-2.761,3.284v19.418c0,2.189,0.921,3.284,2.761,3.284c1.841,0,2.76-1.094,2.76-3.284V95.909z"/>
<path fill="#231F20" d="M262.305,88.43l3.542,16.084h-1.738l-0.957-4.767h-4.098l-0.959,4.767h-1.736L259.9,88.43H262.305z
	 M259.296,98.276h3.61l-1.782-8.644h-0.043L259.296,98.276z"/>
<polygon fill="#231F20" points="263.592,106.325 261.106,119.902 258.622,106.325 256.593,106.325 256.593,122.813 257.933,122.813 
	257.933,109.619 260.452,122.813 261.672,122.813 264.188,109.619 264.188,122.813 265.529,122.813 265.529,106.325 "/>
<path fill="#EC202F" d="M31.362,7.903h27.803C56.34,3.165,51.176,0,45.267,0C39.353,0,34.18,3.165,31.362,7.903"/>
<path fill="#EC202F" d="M45.266,61.789c8.936,0,16.177-7.236,16.177-16.169c0-8.938-7.241-16.174-16.177-16.174
	c-8.939,0-16.182,7.233-16.182,16.174C29.085,54.552,36.329,61.789,45.266,61.789"/>
<path fill="#EC202F" d="M26.585,61.789c-8.944,0-16.186-7.236-16.186-16.169c0-8.938,7.24-16.186,16.186-16.186V61.789"/>
<path fill="#EC202F" d="M63.937,79.645l0.014-15.353h15.351C79.299,72.781,72.425,79.645,63.937,79.645"/>
<path fill="#EC202F" d="M26.585,11.579v15.367H11.206C11.206,18.459,18.091,11.579,26.585,11.579"/>
<path fill="#EC202F" d="M26.585,79.652v-15.36H11.208C11.208,72.781,18.088,79.652,26.585,79.652"/>
<path fill="#EC202F" d="M82.638,59.52l-0.014-27.802c4.734,2.824,7.913,7.982,7.913,13.9C90.541,51.525,87.357,56.694,82.638,59.52"
	/>
<path fill="#EC202F" d="M58.957,82.979h-27.81c2.825,4.73,7.994,7.91,13.896,7.91C50.967,90.886,56.135,87.715,58.957,82.979"/>
<path fill="#EC202F" d="M61.431,64.292c0,8.941-7.229,16.179-16.164,16.179c-8.938,0-16.195-7.235-16.195-16.179H61.431"/>
<path fill="#EC202F" d="M63.949,61.789c8.934,0,16.174-7.236,16.174-16.169c0-8.938-7.24-16.186-16.174-16.186V61.789"/>
<path fill="#EC202F" d="M61.431,26.964c0-8.933-7.229-16.176-16.164-16.176c-8.938,0-16.195,7.243-16.195,16.176H61.431"/>
<path fill="#EC202F" d="M7.898,59.52V31.718C3.167,34.543,0,39.7,0,45.618C0,51.525,3.167,56.694,7.898,59.52"/>
<path fill="#EC202F" d="M79.299,26.959l-15.35-0.013L63.935,11.59C72.425,11.59,79.299,18.466,79.299,26.959"/>
<path fill="#231F20" d="M39.302,104.377h6.52c2.402,0,6.017,0.707,6.017,4.781c0,2.215-1.503,3.771-3.716,4.175v0.054
	c2.532,0.24,4.27,1.949,4.27,4.24c0,4.71-4.216,5.402-6.567,5.402h-6.518L39.302,104.377 M43.042,111.915h1.523
	c1.576,0,3.53-0.349,3.53-2.277c0-2.165-1.896-2.322-3.604-2.322H43.04L43.042,111.915 M43.042,120.09h1.761
	c1.733,0,3.852-0.438,3.852-2.584c0-2.44-1.98-2.813-3.852-2.813h-1.761V120.09z"/>
<path fill="#231F20" d="M36.288,122.763c-1.363,0.322-2.832,0.583-4.256,0.583c-6.028,0-10.222-3.016-10.222-9.32
	c0-6.38,3.895-9.964,10.222-9.964c1.235,0,2.862,0.241,4.225,0.779l-0.271,3.15c-1.403-0.81-2.692-0.99-4.024-0.99
	c-3.842,0-6.254,2.936-6.254,6.763c0,3.781,2.354,6.646,6.33,6.646c1.474,0,3.206-0.323,4.089-0.771L36.288,122.763"/>
<path fill="#231F20" d="M68.726,122.763c-1.356,0.322-2.828,0.583-4.242,0.583c-6.035,0-10.234-3.016-10.234-9.32
	c0-6.38,3.899-9.964,10.234-9.964c1.23,0,2.858,0.241,4.225,0.779l-0.272,3.15c-1.416-0.81-2.696-0.99-4.027-0.99
	c-3.852,0-6.257,2.936-6.257,6.763c0,3.781,2.354,6.646,6.333,6.646c1.465,0,3.212-0.323,4.099-0.771L68.726,122.763"/>
<polyline fill="#999999" points="102.642,0.232 102.642,123.346 103.392,123.346 103.392,0.232 "/>
<path fill="#004990" d="M123.604,88.661h2.528v2.366h0.05c0.366-0.796,0.9-1.448,1.605-1.958c0.7-0.505,1.438-0.759,2.2-0.759
	c0.523,0,1.113,0.063,1.771,0.189v2.53c-0.415-0.181-0.91-0.271-1.486-0.271c-1.197,0-2.164,0.558-2.895,1.672
	c-0.724,1.117-1.094,2.623-1.094,4.529v6.938h-2.683L123.604,88.661"/>
<path fill="#004990" d="M134.062,89.938c1.533-0.94,3.114-1.411,4.747-1.411c2.031,0,3.503,0.508,4.417,1.535
	c0.91,1.027,1.368,2.593,1.368,4.692v6.204c0,1.381,0.03,2.359,0.105,2.934h-2.476v-1.931h-0.054
	c-1.043,1.525-2.532,2.283-4.46,2.283c-1.632,0-2.902-0.37-3.803-1.118c-0.974-0.791-1.456-1.979-1.456-3.56
	c0-1.702,0.771-2.999,2.316-3.889c1.217-0.706,2.666-1.063,4.352-1.063c1.183,0,2.117,0.02,2.811,0.06
	c0-1.342-0.261-2.314-0.782-2.912c-0.553-0.672-1.474-1.007-2.76-1.007c-1.613,0-3.004,0.518-4.168,1.55L134.062,89.938
	 M141.932,96.741c-0.169,0-0.451-0.012-0.835-0.023c-0.38-0.021-0.669-0.03-0.859-0.03c-3.319,0-4.977,0.962-4.977,2.886
	c0,0.742,0.296,1.354,0.884,1.824c0.521,0.417,1.121,0.624,1.797,0.624c1.264,0,2.259-0.38,2.97-1.143
	c0.678-0.711,1.016-1.643,1.016-2.802L141.932,96.741z"/>
<path fill="#004990" d="M159.985,103.89h-2.605v-2.173h-0.05c-0.438,0.689-1.043,1.253-1.829,1.685
	c-0.953,0.561-2.03,0.842-3.23,0.842c-2.081,0-3.689-0.858-4.822-2.582c-1.008-1.505-1.511-3.418-1.511-5.738
	c0-2.213,0.529-4.028,1.59-5.44c1.15-1.576,2.741-2.365,4.771-2.365c2.294,0,3.922,0.825,4.898,2.478h0.048v-9.359h2.742
	L159.985,103.89 M149.767,92.222c-0.622,1.033-0.933,2.341-0.933,3.917c0,1.43,0.311,2.703,0.933,3.807
	c0.77,1.345,1.816,2.014,3.156,2.014c1.404,0,2.511-0.632,3.31-1.903c0.674-1.084,1.018-2.365,1.018-3.833
	c0-1.562-0.358-2.887-1.069-3.977c-0.803-1.216-1.895-1.82-3.283-1.82C151.525,90.43,150.48,91.028,149.767,92.222z"/>
<rect x="162.644" y="88.661" fill="#004990" width="2.709" height="15.229"/>
<path fill="#004990" d="M174.597,88.496c2.192,0,3.971,0.751,5.342,2.244c1.374,1.496,2.064,3.407,2.064,5.728
	c0,2.209-0.69,4.075-2.064,5.594c-1.42,1.581-3.206,2.372-5.342,2.372c-2.169,0-3.958-0.791-5.367-2.372
	c-1.371-1.52-2.061-3.386-2.061-5.594c0-2.32,0.683-4.231,2.044-5.728C170.581,89.249,172.379,88.496,174.597,88.496
	 M174.597,102.148c1.465,0,2.61-0.604,3.444-1.818c0.729-1.075,1.093-2.363,1.093-3.86c0-1.522-0.399-2.842-1.199-3.945
	c-0.869-1.161-1.98-1.742-3.338-1.742c-1.383,0-2.507,0.584-3.357,1.742c-0.818,1.086-1.228,2.402-1.228,3.945
	c0,1.5,0.362,2.788,1.091,3.86C171.96,101.544,173.127,102.148,174.597,102.148z"/>
<path fill="#EC202F" d="M131.027,107.408c2.19,0,3.975,0.753,5.344,2.244c1.372,1.497,2.059,3.412,2.059,5.729
	c0,2.208-0.687,4.075-2.059,5.596c-1.426,1.582-3.204,2.368-5.344,2.368c-2.17,0-3.959-0.787-5.368-2.368
	c-1.373-1.52-2.054-3.387-2.054-5.596c0-2.318,0.675-4.232,2.045-5.729C127.011,108.162,128.802,107.408,131.027,107.408
	 M131.027,121.064c1.457,0,2.61-0.605,3.441-1.821c0.736-1.071,1.097-2.359,1.097-3.86c0-1.521-0.402-2.839-1.199-3.941
	c-0.869-1.162-1.979-1.743-3.339-1.743c-1.388,0-2.507,0.583-3.364,1.743c-0.814,1.085-1.22,2.403-1.22,3.941
	c0,1.503,0.363,2.792,1.094,3.86C128.392,120.458,129.553,121.064,131.027,121.064z"/>
<path fill="#EC202F" d="M140.418,107.572h2.602v2.419h0.061c0.399-0.845,1.034-1.522,1.909-2.024
	c0.883-0.499,1.836-0.747,2.856-0.747c3.649,0,5.474,2.175,5.474,6.528v9.055h-2.687v-7.889c0-1.846-0.215-3.188-0.646-4.027
	c-0.488-0.903-1.306-1.375-2.451-1.41c-1.46-0.038-2.576,0.533-3.366,1.716c-0.713,1.1-1.069,2.625-1.069,4.562v7.043h-2.684
	L140.418,107.572"/>
<path fill="#EC202F" d="M167.874,122.176c-0.974,0.363-1.57,0.582-1.797,0.646c-0.85,0.238-1.792,0.359-2.838,0.359
	c-2.541,0-4.455-0.762-5.754-2.288c-1.239-1.43-1.85-3.433-1.85-6.006c0-2.284,0.633-4.147,1.903-5.587
	c1.266-1.441,2.925-2.163,4.974-2.163c4.325,0,6.488,2.884,6.488,8.647h-10.473c0,1.468,0.485,2.698,1.46,3.697
	c0.919,0.946,2.04,1.416,3.357,1.416c0.82,0,1.713-0.19,2.69-0.577c0.834-0.304,1.447-0.63,1.844-0.976L167.874,122.176
	 M166.104,113.693c0-1.231-0.31-2.24-0.932-3.016c-0.684-0.835-1.585-1.255-2.717-1.255c-1.213,0-2.178,0.458-2.892,1.387
	c-0.568,0.764-0.921,1.728-1.04,2.884H166.104z"/>
<path fill="#004990" d="M238.777,55.146v5.273c0,1.759,0.455,3.152,1.363,4.182c0.91,1.031,2.122,1.545,3.638,1.545
	c1.757,0,3.121-0.59,4.091-1.772c0.969-1.181,1.456-3.257,1.456-6.227V43.235c0-2.121-0.471-3.65-1.41-4.591
	c-0.939-0.939-2.045-1.41-3.318-1.41c-1.758,0-3.091,0.487-4,1.455c-0.91,0.971-1.607,2.152-2.092,3.545h-8.728
	c0.061-2.545,0.152-5,0.273-7.365c0.121-2.363,0.211-4.847,0.273-7.455c0.059-2.605,0.12-5.439,0.182-8.5
	c0.059-3.06,0.089-6.531,0.089-10.411h27.367l-0.364,9.274h-17.729l-0.637,14.184l0.182,0.182c1.395-1.697,2.742-2.757,4.047-3.183
	c1.302-0.423,2.832-0.636,4.59-0.636c4.365,0,7.456,1.5,9.273,4.5c1.819,3.001,2.728,7.259,2.728,12.773v9.092
	c0,6.911-1.181,12.032-3.545,15.365c-2.364,3.335-6.272,5.001-11.728,5.001c-2.304,0-4.44-0.259-6.41-0.773
	c-1.97-0.515-3.682-1.364-5.138-2.545c-1.454-1.183-2.591-2.728-3.409-4.637c-0.818-1.91-1.226-4.228-1.226-6.956v-5H238.777z"/>
<path fill="#004990" d="M172.947,74.712v-8.831c3.52-5.098,6.63-9.68,9.332-13.748c2.7-4.066,4.962-7.739,6.784-11.017
	c1.82-3.277,3.201-6.266,4.142-8.967c0.941-2.701,1.412-5.267,1.412-7.694c0-2.609-0.456-4.507-1.367-5.69
	c-0.91-1.183-2.154-1.775-3.731-1.775c-1.822,0-3.187,0.638-4.097,1.912c-0.91,1.275-1.365,2.914-1.365,4.917v4.461h-10.744v-3.095
	c0-2.428,0.378-4.673,1.138-6.738c0.758-2.063,1.851-3.87,3.279-5.417c1.424-1.548,3.169-2.762,5.233-3.642
	c2.063-0.879,4.431-1.321,7.103-1.321c2.305,0,4.4,0.396,6.282,1.184c1.88,0.789,3.49,1.867,4.826,3.232
	c1.333,1.365,2.367,2.929,3.095,4.689c0.728,1.761,1.092,3.582,1.092,5.463c0,2.61-0.258,5.144-0.774,7.602
	c-0.517,2.459-1.534,5.268-3.049,8.423c-1.518,3.156-3.643,6.858-6.373,11.107c-2.732,4.249-6.313,9.468-10.744,15.659h19.938v9.287
	H172.947z"/>
<path fill="#004990" d="M122.928,23.41h-8.847v-6.045c2.528-1.264,4.905-2.587,7.132-3.972c2.223-1.384,4.272-2.857,6.137-4.422
	h5.687v66.067h-10.108V23.41z"/>
<path fill="#004990" d="M137.187,25.936c0-6.194,1.232-10.722,3.703-13.583c2.466-2.857,6.526-4.287,12.183-4.287
	c5.657,0,9.717,1.43,12.185,4.287c2.469,2.86,3.701,7.388,3.701,13.583v31.229c0,6.198-1.232,10.726-3.701,13.584
	c-2.468,2.858-6.528,4.287-12.185,4.287c-5.654,0-9.716-1.429-12.183-4.287c-2.47-2.858-3.703-7.386-3.703-13.584V25.936z
	 M158.306,23.139c0-4.148-1.744-6.226-5.233-6.226c-3.491,0-5.238,2.078-5.238,6.226v36.824c0,4.154,1.747,6.228,5.238,6.228
	c3.489,0,5.233-2.077,5.233-6.228V23.139z"/>
<rect x="211.734" y="64.388" fill="#004990" width="10.651" height="10.65"/>
<polygon fill="#231F20" points="271.553,26.019 279.456,26.019 279.456,23.044 271.553,23.044 271.553,12.461 282.897,12.461 
	282.897,9.485 268.37,9.485 268.37,40.962 271.553,40.962 "/>
<polygon fill="#231F20" points="280.325,44.499 275.719,69.646 271.117,44.499 267.356,44.499 267.356,75.039 269.842,75.039 
	269.842,50.603 274.506,75.039 276.765,75.039 281.422,50.603 281.422,75.039 283.912,75.039 283.912,44.499 "/>
</svg>
